<svg width="41" height="40" viewBox="0 0 41 40" fill="none" xmlns="http://www.w3.org/2000/svg">
<path d="M10.0444 28.7958V34.3314L12.2713 32.9953L19.2709 28.7958H26.2132C27.8344 28.7958 29.1529 27.4774 29.1529 25.8561V14.097C29.1529 12.4757 27.8344 11.1572 26.2132 11.1572H8.57454C6.95325 11.1572 5.63477 12.4757 5.63477 14.097V25.8561C5.63477 27.4774 6.95325 28.7958 8.57454 28.7958H10.0444ZM8.57454 14.097H26.2132V25.8561H18.4566L12.9842 29.1398V25.8561H8.57454V14.097Z" fill="#11309C"/>
<path d="M32.0926 5.27832H14.4539C12.8326 5.27832 11.5142 6.59681 11.5142 8.21809H29.1528C30.7741 8.21809 32.0926 9.53658 32.0926 11.1579V22.9169C33.7138 22.9169 35.0323 21.5985 35.0323 19.9772V8.21809C35.0323 6.59681 33.7138 5.27832 32.0926 5.27832Z" fill="#11309C"/>
</svg>
