<svg width="41" height="40" viewBox="0 0 41 40" fill="none" xmlns="http://www.w3.org/2000/svg">
<path d="M9.46692 27.7196L9.46727 27.7198L19.6196 33.5812L19.6199 33.5814C19.9462 33.7692 20.3161 33.868 20.6926 33.868C21.0691 33.868 21.439 33.7692 21.7653 33.5814L21.7656 33.5812L31.918 27.7198L31.9184 27.7196C32.2441 27.5308 32.5146 27.2599 32.7028 26.9339C32.891 26.6079 32.9904 26.2382 32.991 25.8617V25.8613V14.1385V14.138C32.9904 13.7616 32.891 13.3919 32.7028 13.0659C32.5146 12.7399 32.2441 12.4689 31.9184 12.2802L31.918 12.28L21.7656 6.41852L21.7653 6.41832C21.439 6.23062 21.0691 6.13184 20.6927 6.13184C20.3162 6.13184 19.9463 6.23062 19.62 6.41832L19.6197 6.41852L9.46727 12.28L9.46692 12.2802C9.14121 12.4689 8.87073 12.7399 8.6825 13.0659C8.49428 13.3919 8.39489 13.7616 8.39429 14.138V14.1385L8.39429 25.8614L8.39429 25.8618C8.39489 26.2382 8.49428 26.6079 8.6825 26.9339C8.87073 27.26 9.14121 27.5309 9.46692 27.7196ZM21.8906 19.2996V9.25735L30.595 14.2828V24.2195L21.8906 19.2996ZM11.8854 26.3493L20.6896 21.3729L29.4969 26.351L20.6928 31.434L11.8854 26.3493ZM10.7903 24.216V14.2828L19.4946 9.25735V19.2959L10.7903 24.216Z" fill="#11309C" stroke="#11309C" stroke-width="0.5"/>
</svg>
