<svg width="40" height="40" viewBox="0 0 40 40" fill="none" xmlns="http://www.w3.org/2000/svg">
<path d="M8.33337 31.6668H15M25 31.6668H31.6667M20.0617 24.3601V14.3901L28.3334 9.90012M20.1167 14.3368L11.7367 9.90012M20 4.99512L28.3884 9.83845V19.5251L20 24.3668L11.6117 19.5235V9.83845L20 4.99512ZM23.3334 31.6668C23.3334 32.5508 22.9822 33.3987 22.3571 34.0238C21.7319 34.6489 20.8841 35.0001 20 35.0001C19.116 35.0001 18.2681 34.6489 17.643 34.0238C17.0179 33.3987 16.6667 32.5508 16.6667 31.6668C16.6667 30.7827 17.0179 29.9349 17.643 29.3098C18.2681 28.6846 19.116 28.3335 20 28.3335C20.8841 28.3335 21.7319 28.6846 22.3571 29.3098C22.9822 29.9349 23.3334 30.7827 23.3334 31.6668Z" stroke="#11309C" stroke-width="3.33333" stroke-linecap="round"/>
</svg>
