<svg width="57" height="57" viewBox="0 0 57 57" fill="none" xmlns="http://www.w3.org/2000/svg">
<path d="M21.9162 13.2113C23.3115 9.12802 28.9535 9.00435 30.6078 12.8403L30.7478 13.2137L32.6308 18.7203C33.0624 19.9832 33.7597 21.1389 34.6758 22.1093C35.592 23.0798 36.7056 23.8425 37.9415 24.346L38.4478 24.535L43.9545 26.4157C48.0378 27.811 48.1615 33.453 44.3278 35.1073L43.9545 35.2473L38.4478 37.1303C37.1845 37.5616 36.0284 38.2588 35.0575 39.1749C34.0867 40.0911 33.3236 41.2048 32.8198 42.441L32.6308 42.945L30.7502 48.454C29.3548 52.5373 23.7128 52.661 22.0608 48.8273L21.9162 48.454L20.0355 42.9473C19.6043 41.684 18.907 40.5279 17.9909 39.5571C17.0748 38.5862 15.961 37.8231 14.7248 37.3193L14.2208 37.1303L8.71417 35.2497C4.6285 33.8543 4.50484 28.2123 8.34084 26.5603L8.71417 26.4157L14.2208 24.535C15.4837 24.1035 16.6394 23.4061 17.6098 22.49C18.5803 21.5739 19.343 20.4603 19.8465 19.2243L20.0355 18.7203L21.9162 13.2113ZM26.3332 14.7187L24.4525 20.2253C23.7954 22.1511 22.7265 23.9104 21.3201 25.3808C19.9137 26.8513 18.2037 27.9975 16.3092 28.7397L15.7258 28.952L10.2192 30.8327L15.7258 32.7133C17.6515 33.3704 19.4109 34.4394 20.8813 35.8458C22.3518 37.2521 23.498 38.9621 24.2402 40.8567L24.4525 41.44L26.3332 46.9467L28.2138 41.44C28.8709 39.5143 29.9399 37.755 31.3463 36.2845C32.7526 34.8141 34.4626 33.6679 36.3572 32.9257L36.9405 32.7157L42.4472 30.8327L36.9405 28.952C35.0148 28.2949 33.2555 27.226 31.785 25.8196C30.3146 24.4132 29.1683 22.7032 28.4262 20.8087L28.2162 20.2253L26.3332 14.7187ZM44.9998 5.16602C45.4364 5.16602 45.8641 5.28846 46.2345 5.51945C46.6049 5.75043 46.9031 6.08069 47.0952 6.47268L47.2072 6.74568L48.0238 9.13968L50.4202 9.95635C50.8576 10.105 51.2411 10.3801 51.522 10.7469C51.803 11.1137 51.9687 11.5557 51.9981 12.0167C52.0276 12.4778 51.9196 12.9373 51.6877 13.3369C51.4558 13.7365 51.1105 14.0582 50.6955 14.2613L50.4202 14.3733L48.0262 15.19L47.2095 17.5863C47.0606 18.0237 46.7853 18.407 46.4183 18.6877C46.0514 18.9684 45.6094 19.1338 45.1483 19.163C44.6873 19.1923 44.2279 19.084 43.8285 18.8519C43.429 18.6198 43.1074 18.2744 42.9045 17.8593L42.7925 17.5863L41.9758 15.1923L39.5795 14.3757C39.142 14.2271 38.7586 13.9519 38.4776 13.5851C38.1967 13.2183 38.031 12.7764 38.0015 12.3153C37.972 11.8542 38.0801 11.3948 38.312 10.9952C38.5439 10.5956 38.8892 10.2738 39.3042 10.0707L39.5795 9.95868L41.9735 9.14202L42.7902 6.74568C42.9475 6.28468 43.2452 5.88447 43.6415 5.60118C44.0377 5.31789 44.5127 5.16572 44.9998 5.16602Z" fill="url(#paint0_linear_2303_16003)"/>
<defs>
<linearGradient id="paint0_linear_2303_16003" x1="46.7958" y1="11.1408" x2="26.3946" y2="34.6807" gradientUnits="userSpaceOnUse">
<stop offset="0.5" stop-color="#AE1A00"/>
<stop offset="1" stop-color="#11309C"/>
</linearGradient>
</defs>
</svg>
