<svg width="40" height="40" viewBox="0 0 40 40" fill="none" xmlns="http://www.w3.org/2000/svg">
<path fill-rule="evenodd" clip-rule="evenodd" d="M3.61998 7.40033C3.77255 7.17461 3.97812 6.98974 4.2187 6.86189C4.45928 6.73405 4.72754 6.66713 4.99998 6.66699H23.3333C23.6664 6.6672 23.9917 6.76718 24.2674 6.95404C24.543 7.1409 24.7564 7.40606 24.88 7.71533L26.1316 10.842L26.6983 8.00699C26.7739 7.62903 26.9781 7.28893 27.2762 7.04461C27.5743 6.80029 27.9479 6.66684 28.3333 6.66699H35C35.2465 6.66714 35.4898 6.72196 35.7126 6.8275C35.9353 6.93304 36.1319 7.08667 36.2881 7.27732C36.4444 7.46798 36.5563 7.69091 36.616 7.93006C36.6757 8.16921 36.6816 8.41862 36.6333 8.66033L35 16.8337V30.0003C35 30.8844 34.6488 31.7322 34.0237 32.3573C33.3985 32.9825 32.5507 33.3337 31.6666 33.3337H9.99998C9.11593 33.3337 8.26808 32.9825 7.64296 32.3573C7.01784 31.7322 6.66665 30.8844 6.66665 30.0003V16.9887L3.45331 8.95033C3.35207 8.6975 3.31432 8.42371 3.34337 8.15292C3.37243 7.88213 3.4674 7.62258 3.61998 7.39699V7.40033ZM9.99998 18.3337V30.0003H25V18.3337H9.99998ZM28.3333 18.3337V30.0003H31.6666V18.3337H28.3333ZM31.9666 15.0003L32.9666 10.0003H29.7L28.7 15.0003H31.9666ZM24.205 15.0003L22.205 10.0003H7.46165L9.46165 15.0003H24.205ZM18.3333 26.667C18.3333 26.225 18.5089 25.801 18.8215 25.4885C19.134 25.1759 19.558 25.0003 20 25.0003H21.6666C22.1087 25.0003 22.5326 25.1759 22.8452 25.4885C23.1577 25.801 23.3333 26.225 23.3333 26.667C23.3333 27.109 23.1577 27.5329 22.8452 27.8455C22.5326 28.1581 22.1087 28.3337 21.6666 28.3337H20C19.558 28.3337 19.134 28.1581 18.8215 27.8455C18.5089 27.5329 18.3333 27.109 18.3333 26.667Z" fill="#11309C"/>
</svg>
