<svg width="41" height="40" viewBox="0 0 41 40" fill="none" xmlns="http://www.w3.org/2000/svg">
<path d="M20.3333 5.8584C28.2598 5.8584 34.6851 12.2837 34.6851 20.2102C34.6851 28.1367 28.2598 34.562 20.3333 34.562C12.4068 34.562 5.98145 28.1367 5.98145 20.2102C5.98145 12.2837 12.4068 5.8584 20.3333 5.8584ZM20.3333 8.72876C17.2882 8.72876 14.3678 9.93841 12.2147 12.0916C10.0615 14.2448 8.85181 17.1651 8.85181 20.2102C8.85181 23.2553 10.0615 26.1756 12.2147 28.3288C14.3678 30.482 17.2882 31.6917 20.3333 31.6917C23.3783 31.6917 26.2987 30.482 28.4519 28.3288C30.6051 26.1756 31.8147 23.2553 31.8147 20.2102C31.8147 17.1651 30.6051 14.2448 28.4519 12.0916C26.2987 9.93841 23.3783 8.72876 20.3333 8.72876ZM20.3333 11.5991C20.6848 11.5992 21.0241 11.7282 21.2868 11.9618C21.5495 12.1954 21.7173 12.5173 21.7584 12.8664L21.7685 13.0343V19.6161L25.6535 23.5011C25.9109 23.7594 26.0603 24.1059 26.0715 24.4704C26.0826 24.8349 25.9546 25.1899 25.7134 25.4634C25.4723 25.7369 25.136 25.9083 24.773 25.9429C24.4101 25.9775 24.0475 25.8726 23.759 25.6496L23.6241 25.5304L19.3186 21.2249C19.0955 21.0016 18.9523 20.7111 18.911 20.3982L18.8981 20.2102V13.0343C18.8981 12.6537 19.0493 12.2886 19.3184 12.0195C19.5876 11.7503 19.9526 11.5991 20.3333 11.5991Z" fill="#11309C"/>
</svg>
