<svg width="40" height="40" viewBox="0 0 40 40" fill="none" xmlns="http://www.w3.org/2000/svg">
<path d="M11.8867 34.5613C9.29321 33.116 7.13289 31.0041 5.62915 28.4441C4.1254 25.884 3.33282 22.9687 3.33337 19.9997C3.33337 10.7947 10.795 3.33301 20 3.33301C29.205 3.33301 36.6667 10.7947 36.6667 19.9997C36.6673 22.9687 35.8747 25.884 34.3709 28.4441C32.8672 31.0041 30.7069 33.116 28.1134 34.5613L26.62 31.5763C29.1717 30.1166 31.1693 27.8546 32.3024 25.142C33.4354 22.4295 33.6402 19.4186 32.885 16.5776C32.1298 13.7366 30.4569 11.2249 28.1265 9.433C25.7961 7.64115 22.9389 6.66966 19.9992 6.66966C17.0596 6.66966 14.2023 7.64115 11.8719 9.433C9.5415 11.2249 7.86859 13.7366 7.11338 16.5776C6.35817 19.4186 6.56302 22.4295 7.69604 25.142C8.82907 27.8546 10.8268 30.1166 13.3784 31.5763L11.8867 34.5613ZM14.8734 28.588C12.9939 27.466 11.5345 25.7584 10.7191 23.7271C9.90363 21.6958 9.77716 19.4531 10.3591 17.343C10.941 15.233 12.1992 13.3721 13.9406 12.0459C15.682 10.7198 17.8104 10.0016 19.9992 10.0016C22.1881 10.0016 24.3165 10.7198 26.0578 12.0459C27.7992 13.3721 29.0574 15.233 29.6393 17.343C30.2213 19.4531 30.0948 21.6958 29.2793 23.7271C28.4639 25.7584 27.0045 27.466 25.125 28.588L23.6284 25.593C24.8347 24.8104 25.7557 23.6587 26.2538 22.3098C26.752 20.9609 26.8007 19.4871 26.3926 18.1082C25.9845 16.7294 25.1416 15.5195 23.9895 14.659C22.8374 13.7985 21.438 13.3335 20 13.3335C18.5621 13.3335 17.1627 13.7985 16.0106 14.659C14.8585 15.5195 14.0156 16.7294 13.6075 18.1082C13.1994 19.4871 13.2481 20.9609 13.7462 22.3098C14.2444 23.6587 15.1654 24.8104 16.3717 25.593L14.8734 28.588ZM20 26.6663L25 36.6663H15L20 26.6663Z" fill="#11309C"/>
</svg>
