<svg width="40" height="40" viewBox="0 0 40 40" fill="none" xmlns="http://www.w3.org/2000/svg">
<path d="M20 35.0003C21.9698 35.0003 23.9203 34.6123 25.7402 33.8585C27.5601 33.1047 29.2137 31.9998 30.6066 30.6069C31.9994 29.214 33.1043 27.5605 33.8582 25.7406C34.612 23.9207 35 21.9702 35 20.0003C35 18.0305 34.612 16.08 33.8582 14.2601C33.1043 12.4402 31.9994 10.7866 30.6066 9.39372C29.2137 8.00084 27.5601 6.89595 25.7402 6.14213C23.9203 5.38831 21.9698 5.00033 20 5.00033C16.0217 5.00033 12.2064 6.58068 9.39336 9.39372C6.58031 12.2068 4.99996 16.0221 4.99996 20.0003C4.99996 23.9786 6.58031 27.7939 9.39336 30.6069C12.2064 33.42 16.0217 35.0003 20 35.0003ZM38.3333 20.0003C38.3333 30.1253 30.125 38.3337 20 38.3337C9.87496 38.3337 1.66663 30.1253 1.66663 20.0003C1.66663 9.87533 9.87496 1.66699 20 1.66699C30.125 1.66699 38.3333 9.87533 38.3333 20.0003ZM25 27.357L18.3333 20.6903V9.16699H21.6666V19.3103L27.3566 25.0003L25 27.357Z" fill="#11309C"/>
</svg>
