<svg width="40" height="40" viewBox="0 0 40 40" fill="none" xmlns="http://www.w3.org/2000/svg">
<path d="M3.33325 3.33301H36.6666V6.66634H33.3333V36.7997L30.6249 34.633L27.5566 32.1797L24.8566 34.5797L23.7499 35.563L22.6433 34.5797L19.9999 32.228L17.3566 34.578L16.2499 35.5613L15.1433 34.578L12.4433 32.178L9.37492 34.633L6.66659 36.7997V6.66634H3.33325V3.33301ZM9.99992 6.66634V29.8663L11.4583 28.6997L12.5566 27.8197L13.6066 28.753L16.2499 31.103L18.8933 28.753L19.9999 27.7697L21.1066 28.753L23.7499 31.103L26.3933 28.753L27.4433 27.8197L28.5416 28.698L29.9999 29.8647V6.66634H9.99992ZM13.3333 11.6663H26.6666V14.9997H13.3333V11.6663ZM16.6666 18.333H14.9999V21.6663H24.9999V18.333H16.6666Z" fill="#11309C"/>
</svg>
